<mxfile host="app.diagrams.net" modified="2023-06-30T06:43:30.349Z" agent="Mozilla/5.0 (Windows NT 10.0; Win64; x64) AppleWebKit/537.36 (KHTML, like Gecko) Chrome/114.0.0.0 Safari/537.36" version="21.5.2" etag="4MNPHAaSy2UsncZcG0na" type="github">
  <diagram name="ページ1" id="1NZqapG6dmY5DeP_RVvb">
    <mxGraphModel>
      <root>
        <mxCell id="0" />
        <mxCell id="1" parent="0" />
      </root>
    </mxGraphModel>
  </diagram>
</mxfile>
